<svg viewBox="0 0 720 474" xmlns="http://www.w3.org/2000/svg" font-family="'PingFang SC','Microsoft YaHei','Noto Sans CJK SC','Hiragino Sans GB',sans-serif" role="img" aria-label="5 分钟首用流">
<rect x="0" y="0" width="720" height="474" fill="#ffffff"/>
<text x="40" y="32" font-size="14" font-weight="600" fill="#2C2C2A">首用 ~5 分钟:从空状态到看见核心 wow</text>

<circle cx="52" cy="71" r="13" fill="#F1EFE8"/><text x="52" y="75" text-anchor="middle" font-size="12" font-weight="600" fill="#5F5E5A">1</text>
<rect x="80" y="48" width="620" height="46" rx="8" fill="#ffffff" stroke="#E4E2DA"/>
<text x="96" y="68" font-size="12" font-weight="600" fill="#2C2C2A">新建 workspace,加第一个仓</text>
<rect x="96" y="74" width="430" height="14" rx="4" fill="#ffffff" stroke="#B4B2A9"/><text x="104" y="84" font-size="10" fill="#888780">~/code/web-app 或 git URL…</text>
<rect x="640" y="72" width="48" height="18" rx="5" fill="#E6F1FB" stroke="#85B7EB"/><text x="664" y="84" text-anchor="middle" font-size="10" fill="#185FA5">Add</text>

<circle cx="52" cy="134" r="13" fill="#F1EFE8"/><text x="52" y="138" text-anchor="middle" font-size="12" font-weight="600" fill="#5F5E5A">2</text>
<rect x="80" y="104" width="620" height="60" rx="8" fill="#ffffff" stroke="#E4E2DA"/>
<text x="96" y="124" font-size="12" font-weight="600" fill="#2C2C2A">Curator 自动 profile(机制不可见)</text>
<text x="96" y="142" font-size="10.5" fill="#5F5E5A">分析中… → 完成</text>
<text x="96" y="157" font-size="11" fill="#2C2C2A">web-app　<tspan fill="#5F5E5A">结算前端 · React</tspan></text>
<rect x="560" y="145" width="56" height="16" rx="5" fill="#ffffff" stroke="#D3D1C7"/><text x="588" y="156" text-anchor="middle" font-size="10" fill="#5F5E5A">确认</text>
<rect x="624" y="145" width="64" height="16" rx="5" fill="#ffffff" stroke="#D3D1C7"/><text x="656" y="156" text-anchor="middle" font-size="10" fill="#5F5E5A">改一行</text>

<circle cx="52" cy="201" r="13" fill="#F1EFE8"/><text x="52" y="205" text-anchor="middle" font-size="12" font-weight="600" fill="#5F5E5A">3</text>
<rect x="80" y="174" width="620" height="54" rx="8" fill="#ffffff" stroke="#E4E2DA"/>
<text x="96" y="194" font-size="12" font-weight="600" fill="#2C2C2A">再加 api、shared-lib → 依赖图自动成形</text>
<rect x="96" y="204" width="72" height="16" rx="5" fill="#E6F1FB" stroke="#85B7EB"/><text x="132" y="215" text-anchor="middle" font-size="10" fill="#0C447C">web-app</text>
<text x="174" y="216" font-size="11" fill="#888780">→</text>
<rect x="188" y="204" width="44" height="16" rx="5" fill="#E6F1FB" stroke="#85B7EB"/><text x="210" y="215" text-anchor="middle" font-size="10" fill="#0C447C">api</text>
<rect x="240" y="204" width="78" height="16" rx="5" fill="#E6F1FB" stroke="#85B7EB"/><text x="279" y="215" text-anchor="middle" font-size="10" fill="#0C447C">shared-lib</text>
<text x="470" y="216" font-size="10" fill="#5F5E5A">检测到 web-app → api 依赖</text>

<circle cx="52" cy="269" r="13" fill="#F1EFE8"/><text x="52" y="273" text-anchor="middle" font-size="12" font-weight="600" fill="#5F5E5A">4</text>
<rect x="80" y="238" width="620" height="62" rx="8" fill="#ffffff" stroke="#E4E2DA"/>
<text x="96" y="258" font-size="12" font-weight="600" fill="#2C2C2A">新建 thread,输入一个 Task</text>
<rect x="96" y="266" width="500" height="16" rx="4" fill="#ffffff" stroke="#B4B2A9"/><text x="104" y="277" font-size="10.5" fill="#5F5E5A">Task:在结算流程加优惠码</text>
<text x="96" y="294" font-size="10" fill="#888780">Task 可是 PRD / bug(#4821)/ 重构 / spike —— 任意粒度</text>

<circle cx="52" cy="365" r="13" fill="#E6F1FB"/><text x="52" y="370" text-anchor="middle" font-size="12" font-weight="600" fill="#185FA5">★</text>
<rect x="80" y="310" width="620" height="110" rx="8" fill="#ffffff" stroke="#85B7EB"/>
<text x="96" y="330" font-size="12" font-weight="600" fill="#2C2C2A">Lead 自动跨仓 scope 分解 —— 核心 wow</text>
<text x="96" y="348" font-size="10" fill="#5F5E5A">SCOPE(自动推断,可改)</text>
<rect x="96" y="354" width="96" height="17" rx="5" fill="#E1F5EE" stroke="#5DCAA5"/><text x="144" y="366" text-anchor="middle" font-size="10" fill="#085041">web-app · edit</text>
<rect x="200" y="354" width="66" height="17" rx="5" fill="#E1F5EE" stroke="#5DCAA5"/><text x="233" y="366" text-anchor="middle" font-size="10" fill="#085041">api · edit</text>
<rect x="274" y="354" width="100" height="17" rx="5" fill="#F1EFE8" stroke="#D3D1C7"/><text x="324" y="366" text-anchor="middle" font-size="10" fill="#5F5E5A">shared-lib · read</text>
<rect x="382" y="354" width="62" height="17" rx="5" fill="#F1EFE8" stroke="#D3D1C7" opacity="0.6"/><text x="413" y="366" text-anchor="middle" font-size="10" fill="#5F5E5A">docs · —</text>
<circle cx="104" cy="386" r="4" fill="#D85A30"/><text x="113" y="390" font-size="10.5" fill="#2C2C2A">Frontend · Claude</text>
<circle cx="214" cy="386" r="4" fill="#1D9E75"/><text x="223" y="390" font-size="10.5" fill="#2C2C2A">Backend · Codex</text>
<text x="96" y="409" font-size="10" fill="#888780">别的工具演不出来:一个 Task → 自动判断"动哪几个仓 + 怎么分工"</text>

<text x="80" y="446" font-size="11" fill="#5F5E5A">↓ 之后 automation-first:Task 成为看板卡 → 自动拉起 worker → 验证 → 一堆干净 PR(merge 交人)</text>
</svg>
